<svg xmlns="http://www.w3.org/2000/svg" viewBox="0 0 1024 1024" width="1024" height="1024">
  <rect width="1024" height="1024" fill="#0A0A0A"/>
  <g transform="translate(128 128) scale(3.2)">
    <g fill="none" stroke="#ECECEC" stroke-width="8" stroke-linecap="round" stroke-linejoin="round">
      <path d="M111 102 Q98 78 84 54"/><path d="M130 102 Q142 78 152 56"/>
      <path d="M101 134 Q80 146 62 160"/><path d="M117 153 Q112 178 108 202"/>
      <path d="M141 132 Q168 138 190 150"/>
    </g>
    <path d="M120 94 C141 94 149 110 148 126 C147 146 138 160 120 160 C102 160 93 146 93 126 C93 110 99 94 120 94 Z" fill="#ECECEC"/>
    <circle cx="129" cy="133" r="7" fill="#0A0A0A"/>
    <g fill="#ECECEC"><circle cx="84" cy="54" r="7.5"/><circle cx="152" cy="56" r="7.5"/><circle cx="62" cy="160" r="7.5"/><circle cx="108" cy="202" r="7.5"/><circle cx="190" cy="150" r="7.5"/></g>
  </g>
</svg>
