<svg xmlns="http://www.w3.org/2000/svg" viewBox="0 0 868 146" width="868" height="146">
<g transform="translate(-6.53,-1.88) scale(0.58226)"><g fill="none" stroke="#0A0A0A" stroke-width="8" stroke-linecap="round" stroke-linejoin="round"><path d="M111 102 Q98 78 84 54"/><path d="M130 102 Q142 78 152 56"/><path d="M101 134 Q80 146 62 160"/><path d="M117 153 Q112 178 108 202"/><path d="M141 132 Q168 138 190 150"/></g><path d="M120 94 C141 94 149 110 148 126 C147 146 138 160 120 160 C102 160 93 146 93 126 C93 110 99 94 120 94 Z" fill="#0A0A0A"/><circle cx="129" cy="133" r="7" fill="#FFFFFF"/><g fill="#0A0A0A"><circle cx="84" cy="54" r="7.5"/><circle cx="152" cy="56" r="7.5"/><circle cx="62" cy="160" r="7.5"/><circle cx="108" cy="202" r="7.5"/><circle cx="190" cy="150" r="7.5"/></g></g>
<g transform="translate(141.77,100.80)"><g transform="translate(0.000,0) scale(0.080000,-0.080000)"><path d="M84.000244140625 700V0H139.3984375V700ZM114.999267578125 648.001708984375H247.9986572265625Q324.7991943359375 648.001708984375 373.09954833984375 608.30126953125Q421.39990234375 568.600830078125 421.39990234375 492.8001708984375Q421.39990234375 417.5994873046875 373.09954833984375 377.59906005859375Q324.7991943359375 337.5986328125 247.9986572265625 337.5986328125H114.999267578125V285.600341796875H247.9986572265625Q313.99853515625 285.600341796875 365.4984130859375 310.50030517578125Q416.998291015625 335.4002685546875 446.898193359375 382.1002197265625Q476.798095703125 428.8001708984375 476.798095703125 492.8001708984375Q476.798095703125 557.8001708984375 446.898193359375 604.0001220703125Q416.998291015625 650.2000732421875 365.4984130859375 675.1000366210938Q313.99853515625 700 247.9986572265625 700H114.999267578125Z" fill="#0A0A0A"/></g><g transform="translate(75.280,0) scale(0.080000,-0.080000)"><path d="M102.3983154296875 350Q102.3983154296875 437.800537109375 139.698486328125 506.200927734375Q176.9986572265625 574.601318359375 242.5989990234375 614.2015380859375Q308.1993408203125 653.8017578125 391.7998046875 653.8017578125Q476.4002685546875 653.8017578125 541.5006103515625 614.2015380859375Q606.6009521484375 574.601318359375 643.901123046875 506.200927734375Q681.2012939453125 437.800537109375 681.2012939453125 350Q681.2012939453125 262.5994873046875 643.901123046875 193.99908447265625Q606.6009521484375 125.398681640625 541.5006103515625 85.7984619140625Q476.4002685546875 46.1982421875 391.7998046875 46.1982421875Q308.1993408203125 46.1982421875 242.5989990234375 85.7984619140625Q176.9986572265625 125.398681640625 139.698486328125 193.99908447265625Q102.3983154296875 262.5994873046875 102.3983154296875 350ZM44.000244140625 350Q44.000244140625 273.199951171875 69.90020751953125 207.39996337890625Q95.8001708984375 141.5999755859375 142.80010986328125 93.29998779296875Q189.800048828125 45 253.39996337890625 17.9000244140625Q316.9998779296875 -9.199951171875 391.7998046875 -9.199951171875Q467.19970703125 -9.199951171875 530.4996337890625 17.9000244140625Q593.799560546875 45 640.7994995117188 93.29998779296875Q687.7994384765625 141.5999755859375 713.6994018554688 207.39996337890625Q739.599365234375 273.199951171875 739.599365234375 350Q739.599365234375 427.4000244140625 713.6994018554688 492.9000244140625Q687.7994384765625 558.4000244140625 640.7994995117188 606.7000122070312Q593.799560546875 655 530.4996337890625 682.0999755859375Q467.19970703125 709.199951171875 391.7998046875 709.199951171875Q316.9998779296875 709.199951171875 253.39996337890625 682.0999755859375Q189.800048828125 655 142.80010986328125 606.7000122070312Q95.8001708984375 558.4000244140625 69.90020751953125 492.9000244140625Q44.000244140625 427.4000244140625 44.000244140625 350Z" fill="#0A0A0A"/></g><g transform="translate(171.600,0) scale(0.080000,-0.080000)"><path d="M84.000244140625 700V0H427.999267578125V51.998291015625H138.9984130859375V700Z" fill="#0A0A0A"/></g><g transform="translate(240.560,0) scale(0.080000,-0.080000)"><path d="M468.200439453125 700 267.19921875 337.9976806640625 71.1982421875 700H9.000244140625L240.0001220703125 286.9991455078125V0H295.3983154296875V287.9991455078125L530.3984375 700Z" fill="#0A0A0A"/></g><g transform="translate(317.280,0) scale(0.080000,-0.080000)"><path d="M113.399169921875 647.6016845703125H419.998779296875V700H113.399169921875ZM113.399169921875 353.2008056640625H409.998779296875V405.1990966796875H113.399169921875ZM84.000244140625 700V0H139.3984375V700Z" fill="#0A0A0A"/></g><g transform="translate(389.280,0) scale(0.080000,-0.080000)"><path d="M139.799560546875 234.801513671875H498.9989013671875L480.9996337890625 286.7998046875H157.798828125ZM317.999267578125 600.403564453125 456.0003662109375 266.400390625 461.2001953125 253.2008056640625 565.2003173828125 0H626.998291015625L317.999267578125 726.99951171875L9.000244140625 0H70.7982177734375L176.3983154296875 256.8006591796875L181.59814453125 269.2003173828125Z" fill="#0A0A0A"/></g><g transform="translate(473.760,0) scale(0.080000,-0.080000)"><path d="M79.000244140625 700V225.999755859375Q79.000244140625 173.999755859375 93.900146484375 130.59979248046875Q108.800048828125 87.1998291015625 137.89990234375 55.9998779296875Q166.999755859375 24.7999267578125 208.599609375 7.39996337890625Q250.199462890625 -10 302.9993896484375 -10Q355.79931640625 -10 397.399169921875 7.39996337890625Q438.9990234375 24.7999267578125 468.098876953125 55.9998779296875Q497.19873046875 87.1998291015625 512.0986328125 130.59979248046875Q526.99853515625 173.999755859375 526.99853515625 225.999755859375V700H471.600341796875V225.999755859375Q471.600341796875 141.9990234375 427.800048828125 92.19866943359375Q383.999755859375 42.3983154296875 302.9993896484375 42.3983154296875Q221.9990234375 42.3983154296875 178.19873046875 92.19866943359375Q134.3984375 141.9990234375 134.3984375 225.999755859375V700Z" fill="#0A0A0A"/></g><g transform="translate(555.840,0) scale(0.080000,-0.080000)"><path d="M615.600341796875 700V114.196044921875L84.000244140625 726.99951171875V0H139.3984375V583.8038330078125L670.99853515625 -26.99951171875V700Z" fill="#0A0A0A"/></g><g transform="translate(649.840,0) scale(0.080000,-0.080000)"><path d="M139.799560546875 234.801513671875H498.9989013671875L480.9996337890625 286.7998046875H157.798828125ZM317.999267578125 600.403564453125 456.0003662109375 266.400390625 461.2001953125 253.2008056640625 565.2003173828125 0H626.998291015625L317.999267578125 726.99951171875L9.000244140625 0H70.7982177734375L176.3983154296875 256.8006591796875L181.59814453125 269.2003173828125Z" fill="#0A0A0A"/></g></g></svg>
