<svg xmlns="http://www.w3.org/2000/svg" viewBox="0 0 928 180" width="928" height="180">
<g transform="translate(24,24.0) scale(0.55000)"><g fill="none" stroke="#0A0A0A" stroke-width="5" stroke-linecap="round" stroke-linejoin="round"><path d="M111 102 Q98 78 84 54"/><path d="M130 102 Q142 78 152 56"/><path d="M101 134 Q80 146 62 160"/><path d="M117 153 Q112 178 108 202"/><path d="M141 132 Q168 138 190 150"/></g><path d="M120 98 C137 98 145 112 144 126 C143 144 136 156 120 156 C104 156 97 144 97 126 C97 112 103 98 120 98 Z" fill="#0A0A0A"/><circle cx="129" cy="132" r="5" fill="#FFFFFF"/><g fill="#0A0A0A"><circle cx="84" cy="54" r="5"/><circle cx="152" cy="56" r="5"/><circle cx="62" cy="160" r="5"/><circle cx="108" cy="202" r="5"/><circle cx="190" cy="150" r="5"/></g></g>
<g transform="translate(186.00,102.70)"><g transform="translate(0.000,0) scale(0.082000,-0.082000)"><path d="M84.000244140625 700V0H139.3984375V700ZM114.999267578125 648.001708984375H247.9986572265625Q324.7991943359375 648.001708984375 373.09954833984375 608.30126953125Q421.39990234375 568.600830078125 421.39990234375 492.8001708984375Q421.39990234375 417.5994873046875 373.09954833984375 377.59906005859375Q324.7991943359375 337.5986328125 247.9986572265625 337.5986328125H114.999267578125V285.600341796875H247.9986572265625Q313.99853515625 285.600341796875 365.4984130859375 310.50030517578125Q416.998291015625 335.4002685546875 446.898193359375 382.1002197265625Q476.798095703125 428.8001708984375 476.798095703125 492.8001708984375Q476.798095703125 557.8001708984375 446.898193359375 604.0001220703125Q416.998291015625 650.2000732421875 365.4984130859375 675.1000366210938Q313.99853515625 700 247.9986572265625 700H114.999267578125Z" fill="#0A0A0A"/></g><g transform="translate(77.162,0) scale(0.082000,-0.082000)"><path d="M102.3983154296875 350Q102.3983154296875 437.800537109375 139.698486328125 506.200927734375Q176.9986572265625 574.601318359375 242.5989990234375 614.2015380859375Q308.1993408203125 653.8017578125 391.7998046875 653.8017578125Q476.4002685546875 653.8017578125 541.5006103515625 614.2015380859375Q606.6009521484375 574.601318359375 643.901123046875 506.200927734375Q681.2012939453125 437.800537109375 681.2012939453125 350Q681.2012939453125 262.5994873046875 643.901123046875 193.99908447265625Q606.6009521484375 125.398681640625 541.5006103515625 85.7984619140625Q476.4002685546875 46.1982421875 391.7998046875 46.1982421875Q308.1993408203125 46.1982421875 242.5989990234375 85.7984619140625Q176.9986572265625 125.398681640625 139.698486328125 193.99908447265625Q102.3983154296875 262.5994873046875 102.3983154296875 350ZM44.000244140625 350Q44.000244140625 273.199951171875 69.90020751953125 207.39996337890625Q95.8001708984375 141.5999755859375 142.80010986328125 93.29998779296875Q189.800048828125 45 253.39996337890625 17.9000244140625Q316.9998779296875 -9.199951171875 391.7998046875 -9.199951171875Q467.19970703125 -9.199951171875 530.4996337890625 17.9000244140625Q593.799560546875 45 640.7994995117188 93.29998779296875Q687.7994384765625 141.5999755859375 713.6994018554688 207.39996337890625Q739.599365234375 273.199951171875 739.599365234375 350Q739.599365234375 427.4000244140625 713.6994018554688 492.9000244140625Q687.7994384765625 558.4000244140625 640.7994995117188 606.7000122070312Q593.799560546875 655 530.4996337890625 682.0999755859375Q467.19970703125 709.199951171875 391.7998046875 709.199951171875Q316.9998779296875 709.199951171875 253.39996337890625 682.0999755859375Q189.800048828125 655 142.80010986328125 606.7000122070312Q95.8001708984375 558.4000244140625 69.90020751953125 492.9000244140625Q44.000244140625 427.4000244140625 44.000244140625 350Z" fill="#0A0A0A"/></g><g transform="translate(175.890,0) scale(0.082000,-0.082000)"><path d="M84.000244140625 700V0H427.999267578125V51.998291015625H138.9984130859375V700Z" fill="#0A0A0A"/></g><g transform="translate(246.574,0) scale(0.082000,-0.082000)"><path d="M468.200439453125 700 267.19921875 337.9976806640625 71.1982421875 700H9.000244140625L240.0001220703125 286.9991455078125V0H295.3983154296875V287.9991455078125L530.3984375 700Z" fill="#0A0A0A"/></g><g transform="translate(325.212,0) scale(0.082000,-0.082000)"><path d="M113.399169921875 647.6016845703125H419.998779296875V700H113.399169921875ZM113.399169921875 353.2008056640625H409.998779296875V405.1990966796875H113.399169921875ZM84.000244140625 700V0H139.3984375V700Z" fill="#0A0A0A"/></g><g transform="translate(399.012,0) scale(0.082000,-0.082000)"><path d="M139.799560546875 234.801513671875H498.9989013671875L480.9996337890625 286.7998046875H157.798828125ZM317.999267578125 600.403564453125 456.0003662109375 266.400390625 461.2001953125 253.2008056640625 565.2003173828125 0H626.998291015625L317.999267578125 726.99951171875L9.000244140625 0H70.7982177734375L176.3983154296875 256.8006591796875L181.59814453125 269.2003173828125Z" fill="#0A0A0A"/></g><g transform="translate(485.604,0) scale(0.082000,-0.082000)"><path d="M79.000244140625 700V225.999755859375Q79.000244140625 173.999755859375 93.900146484375 130.59979248046875Q108.800048828125 87.1998291015625 137.89990234375 55.9998779296875Q166.999755859375 24.7999267578125 208.599609375 7.39996337890625Q250.199462890625 -10 302.9993896484375 -10Q355.79931640625 -10 397.399169921875 7.39996337890625Q438.9990234375 24.7999267578125 468.098876953125 55.9998779296875Q497.19873046875 87.1998291015625 512.0986328125 130.59979248046875Q526.99853515625 173.999755859375 526.99853515625 225.999755859375V700H471.600341796875V225.999755859375Q471.600341796875 141.9990234375 427.800048828125 92.19866943359375Q383.999755859375 42.3983154296875 302.9993896484375 42.3983154296875Q221.9990234375 42.3983154296875 178.19873046875 92.19866943359375Q134.3984375 141.9990234375 134.3984375 225.999755859375V700Z" fill="#0A0A0A"/></g><g transform="translate(569.736,0) scale(0.082000,-0.082000)"><path d="M615.600341796875 700V114.196044921875L84.000244140625 726.99951171875V0H139.3984375V583.8038330078125L670.99853515625 -26.99951171875V700Z" fill="#0A0A0A"/></g><g transform="translate(666.086,0) scale(0.082000,-0.082000)"><path d="M139.799560546875 234.801513671875H498.9989013671875L480.9996337890625 286.7998046875H157.798828125ZM317.999267578125 600.403564453125 456.0003662109375 266.400390625 461.2001953125 253.2008056640625 565.2003173828125 0H626.998291015625L317.999267578125 726.99951171875L9.000244140625 0H70.7982177734375L176.3983154296875 256.8006591796875L181.59814453125 269.2003173828125Z" fill="#0A0A0A"/></g></g>
<g transform="translate(186.00,134.70)"><g transform="translate(0.000,0) scale(0.018000,-0.018000)"><path d="M202.599853515625 333.79931640625 434.599365234375 0H503.1971435546875L264.3978271484375 333.79931640625ZM84.000244140625 700V0H139.3984375V700ZM112.9991455078125 650.6015625H243.9984130859375Q297.39892578125 650.6015625 338.29931640625 633.00146484375Q379.19970703125 615.4013671875 402.49993896484375 581.401123046875Q425.8001708984375 547.40087890625 425.8001708984375 496.8004150390625Q425.8001708984375 446.5999755859375 402.699951171875 412.19970703125Q379.5997314453125 377.7994384765625 338.49932861328125 360.1993408203125Q297.39892578125 342.5992431640625 243.9984130859375 342.5992431640625H112.9991455078125V293.600830078125H243.9984130859375Q311.9984130859375 293.600830078125 365.29840087890625 317.500732421875Q418.598388671875 341.400634765625 449.89837646484375 387.10052490234375Q481.1983642578125 432.8004150390625 481.1983642578125 496.8004150390625Q481.1983642578125 561.8004150390625 449.89837646484375 607.0003051757812Q418.598388671875 652.2001953125 365.29840087890625 676.10009765625Q311.9984130859375 700 243.9984130859375 700H112.9991455078125Z" fill="#0A0A0A"/></g><g transform="translate(29.741,0) scale(0.018000,-0.018000)"><path d="M139.799560546875 234.801513671875H498.9989013671875L480.9996337890625 286.7998046875H157.798828125ZM317.999267578125 600.403564453125 456.0003662109375 266.400390625 461.2001953125 253.2008056640625 565.2003173828125 0H626.998291015625L317.999267578125 726.99951171875L9.000244140625 0H70.7982177734375L176.3983154296875 256.8006591796875L181.59814453125 269.2003173828125Z" fill="#0A0A0A"/></g><g transform="translate(61.517,0) scale(0.018000,-0.018000)"><path d="M84.000244140625 700V0H139.3984375V700ZM273.9990234375 0Q375.9990234375 0 453.59893798828125 44.0Q531.1988525390625 88 574.5987548828125 166.5Q617.9986572265625 245 617.9986572265625 350Q617.9986572265625 455 574.5987548828125 533.5Q531.1988525390625 612 453.59893798828125 656.0Q375.9990234375 700 273.9990234375 700H114.19921875V644.601806640625H273.9990234375Q339.3994140625 644.601806640625 392.7996826171875 623.9016723632812Q446.199951171875 603.2015380859375 484.0001220703125 564.5012817382812Q521.80029296875 525.801025390625 542.2003784179688 471.40069580078125Q562.6004638671875 417.0003662109375 562.6004638671875 350Q562.6004638671875 282.9996337890625 542.2003784179688 228.59930419921875Q521.80029296875 174.198974609375 484.0001220703125 135.49871826171875Q446.199951171875 96.7984619140625 392.7996826171875 76.09832763671875Q339.3994140625 55.398193359375 273.9990234375 55.398193359375H114.19921875V0Z" fill="#0A0A0A"/></g><g transform="translate(93.760,0) scale(0.018000,-0.018000)"><path d="M82.0001220703125 700V0H136.998291015625V700Z" fill="#0A0A0A"/></g><g transform="translate(118.029,0) scale(0.018000,-0.018000)"><path d="M102.3983154296875 350Q102.3983154296875 437.800537109375 139.698486328125 506.200927734375Q176.9986572265625 574.601318359375 242.5989990234375 614.2015380859375Q308.1993408203125 653.8017578125 391.7998046875 653.8017578125Q476.4002685546875 653.8017578125 541.5006103515625 614.2015380859375Q606.6009521484375 574.601318359375 643.901123046875 506.200927734375Q681.2012939453125 437.800537109375 681.2012939453125 350Q681.2012939453125 262.5994873046875 643.901123046875 193.99908447265625Q606.6009521484375 125.398681640625 541.5006103515625 85.7984619140625Q476.4002685546875 46.1982421875 391.7998046875 46.1982421875Q308.1993408203125 46.1982421875 242.5989990234375 85.7984619140625Q176.9986572265625 125.398681640625 139.698486328125 193.99908447265625Q102.3983154296875 262.5994873046875 102.3983154296875 350ZM44.000244140625 350Q44.000244140625 273.199951171875 69.90020751953125 207.39996337890625Q95.8001708984375 141.5999755859375 142.80010986328125 93.29998779296875Q189.800048828125 45 253.39996337890625 17.9000244140625Q316.9998779296875 -9.199951171875 391.7998046875 -9.199951171875Q467.19970703125 -9.199951171875 530.4996337890625 17.9000244140625Q593.799560546875 45 640.7994995117188 93.29998779296875Q687.7994384765625 141.5999755859375 713.6994018554688 207.39996337890625Q739.599365234375 273.199951171875 739.599365234375 350Q739.599365234375 427.4000244140625 713.6994018554688 492.9000244140625Q687.7994384765625 558.4000244140625 640.7994995117188 606.7000122070312Q593.799560546875 655 530.4996337890625 682.0999755859375Q467.19970703125 709.199951171875 391.7998046875 709.199951171875Q316.9998779296875 709.199951171875 253.39996337890625 682.0999755859375Q189.800048828125 655 142.80010986328125 606.7000122070312Q95.8001708984375 558.4000244140625 69.90020751953125 492.9000244140625Q44.000244140625 427.4000244140625 44.000244140625 350Z" fill="#0A0A0A"/></g><g transform="translate(178.196,0) scale(0.018000,-0.018000)"><path d="M101.0003662109375 232.3995361328125Q101.0003662109375 217.199951171875 112.25389216496394 206.10028076171875Q123.50741811899039 195.0006103515625 138.51211939102564 195.0006103515625Q154.1988525390625 195.0006103515625 164.99853515625 206.10028076171875Q175.7982177734375 217.199951171875 175.7982177734375 232.35508897569446Q175.7982177734375 248.1990966796875 164.95177905590504 258.998779296875Q154.10534033837257 269.7984619140625 138.51358468191964 269.7984619140625Q123.5997314453125 269.7984619140625 112.300048828125 258.9187744140625Q101.0003662109375 248.0390869140625 101.0003662109375 232.3995361328125Z" fill="#0A0A0A"/></g><g transform="translate(229.237,0) scale(0.018000,-0.018000)"><path d="M84.000244140625 700V0H139.3984375V700ZM114.999267578125 648.001708984375H247.9986572265625Q324.7991943359375 648.001708984375 373.09954833984375 608.30126953125Q421.39990234375 568.600830078125 421.39990234375 492.8001708984375Q421.39990234375 417.5994873046875 373.09954833984375 377.59906005859375Q324.7991943359375 337.5986328125 247.9986572265625 337.5986328125H114.999267578125V285.600341796875H247.9986572265625Q313.99853515625 285.600341796875 365.4984130859375 310.50030517578125Q416.998291015625 335.4002685546875 446.898193359375 382.1002197265625Q476.798095703125 428.8001708984375 476.798095703125 492.8001708984375Q476.798095703125 557.8001708984375 446.898193359375 604.0001220703125Q416.998291015625 650.2000732421875 365.4984130859375 675.1000366210938Q313.99853515625 700 247.9986572265625 700H114.999267578125Z" fill="#0A0A0A"/></g><g transform="translate(258.942,0) scale(0.018000,-0.018000)"><path d="M102.3983154296875 350Q102.3983154296875 437.800537109375 139.698486328125 506.200927734375Q176.9986572265625 574.601318359375 242.5989990234375 614.2015380859375Q308.1993408203125 653.8017578125 391.7998046875 653.8017578125Q476.4002685546875 653.8017578125 541.5006103515625 614.2015380859375Q606.6009521484375 574.601318359375 643.901123046875 506.200927734375Q681.2012939453125 437.800537109375 681.2012939453125 350Q681.2012939453125 262.5994873046875 643.901123046875 193.99908447265625Q606.6009521484375 125.398681640625 541.5006103515625 85.7984619140625Q476.4002685546875 46.1982421875 391.7998046875 46.1982421875Q308.1993408203125 46.1982421875 242.5989990234375 85.7984619140625Q176.9986572265625 125.398681640625 139.698486328125 193.99908447265625Q102.3983154296875 262.5994873046875 102.3983154296875 350ZM44.000244140625 350Q44.000244140625 273.199951171875 69.90020751953125 207.39996337890625Q95.8001708984375 141.5999755859375 142.80010986328125 93.29998779296875Q189.800048828125 45 253.39996337890625 17.9000244140625Q316.9998779296875 -9.199951171875 391.7998046875 -9.199951171875Q467.19970703125 -9.199951171875 530.4996337890625 17.9000244140625Q593.799560546875 45 640.7994995117188 93.29998779296875Q687.7994384765625 141.5999755859375 713.6994018554688 207.39996337890625Q739.599365234375 273.199951171875 739.599365234375 350Q739.599365234375 427.4000244140625 713.6994018554688 492.9000244140625Q687.7994384765625 558.4000244140625 640.7994995117188 606.7000122070312Q593.799560546875 655 530.4996337890625 682.0999755859375Q467.19970703125 709.199951171875 391.7998046875 709.199951171875Q316.9998779296875 709.199951171875 253.39996337890625 682.0999755859375Q189.800048828125 655 142.80010986328125 606.7000122070312Q95.8001708984375 558.4000244140625 69.90020751953125 492.9000244140625Q44.000244140625 427.4000244140625 44.000244140625 350Z" fill="#0A0A0A"/></g><g transform="translate(293.381,0) scale(0.018000,-0.018000)"><path d="M84.000244140625 700V0H139.3984375V700ZM273.9990234375 0Q375.9990234375 0 453.59893798828125 44.0Q531.1988525390625 88 574.5987548828125 166.5Q617.9986572265625 245 617.9986572265625 350Q617.9986572265625 455 574.5987548828125 533.5Q531.1988525390625 612 453.59893798828125 656.0Q375.9990234375 700 273.9990234375 700H114.19921875V644.601806640625H273.9990234375Q339.3994140625 644.601806640625 392.7996826171875 623.9016723632812Q446.199951171875 603.2015380859375 484.0001220703125 564.5012817382812Q521.80029296875 525.801025390625 542.2003784179688 471.40069580078125Q562.6004638671875 417.0003662109375 562.6004638671875 350Q562.6004638671875 282.9996337890625 542.2003784179688 228.59930419921875Q521.80029296875 174.198974609375 484.0001220703125 135.49871826171875Q446.199951171875 96.7984619140625 392.7996826171875 76.09832763671875Q339.3994140625 55.398193359375 273.9990234375 55.398193359375H114.19921875V0Z" fill="#0A0A0A"/></g><g transform="translate(325.625,0) scale(0.018000,-0.018000)"><path d="M102.79833984375 350Q102.79833984375 440.00048828125 141.09844970703125 508.10089111328125Q179.3985595703125 576.2012939453125 243.39886474609375 614.801513671875Q307.399169921875 653.4017333984375 385.999755859375 653.4017333984375Q434.7996826171875 653.4017333984375 475.899658203125 642.0018310546875Q516.9996337890625 630.6019287109375 551.1996459960938 609.10205078125Q585.399658203125 587.6021728515625 610.999755859375 557.80224609375V630.9998779296875Q566.999755859375 669.9998779296875 514.999755859375 689.5999145507812Q462.999755859375 709.199951171875 385.999755859375 709.199951171875Q312.999755859375 709.199951171875 250.6998291015625 682.699951171875Q188.39990234375 656.199951171875 142.0 607.8999633789062Q95.60009765625 559.5999755859375 69.8001708984375 493.79998779296875Q44.000244140625 428 44.000244140625 350Q44.000244140625 272 69.8001708984375 206.20001220703125Q95.60009765625 140.4000244140625 142.0 92.10003662109375Q188.39990234375 43.800048828125 250.6998291015625 17.300048828125Q312.999755859375 -9.199951171875 385.999755859375 -9.199951171875Q462.999755859375 -9.199951171875 514.999755859375 10.40008544921875Q566.999755859375 30.0001220703125 610.999755859375 69.0001220703125V142.5977783203125Q584.9996337890625 112.7978515625 551.399658203125 91.09796142578125Q517.7996826171875 69.3980712890625 476.89971923828125 57.9981689453125Q435.999755859375 46.5982666015625 385.999755859375 46.5982666015625Q307.399169921875 46.5982666015625 243.1988525390625 85.5985107421875Q178.99853515625 124.5987548828125 140.8984375 192.9991455078125Q102.79833984375 261.3995361328125 102.79833984375 350Z" fill="#0A0A0A"/></g><g transform="translate(358.282,0) scale(0.018000,-0.018000)"><path d="M139.799560546875 234.801513671875H498.9989013671875L480.9996337890625 286.7998046875H157.798828125ZM317.999267578125 600.403564453125 456.0003662109375 266.400390625 461.2001953125 253.2008056640625 565.2003173828125 0H626.998291015625L317.999267578125 726.99951171875L9.000244140625 0H70.7982177734375L176.3983154296875 256.8006591796875L181.59814453125 269.2003173828125Z" fill="#0A0A0A"/></g><g transform="translate(390.057,0) scale(0.018000,-0.018000)"><path d="M89.198974609375 202.3994140625 44.0003662109375 173.6004638671875Q61 125.2003173828125 92.09967041015625 83.30023193359375Q123.1993408203125 41.400146484375 169.2991943359375 16.10009765625Q215.3990478515625 -9.199951171875 275.5992431640625 -9.199951171875Q318.79931640625 -9.199951171875 355.69921875 4.60003662109375Q392.59912109375 18.4000244140625 420.2989501953125 43.5999755859375Q447.998779296875 68.7999267578125 463.4986572265625 103.99981689453125Q478.99853515625 139.19970703125 478.99853515625 181.99951171875Q478.99853515625 228.3994140625 462.99859619140625 261.89935302734375Q446.9986572265625 295.3992919921875 421.2987060546875 319.29925537109375Q395.5987548828125 343.19921875 364.79876708984375 359.19921875Q333.998779296875 375.19921875 304.7987060546875 385.999267578125Q248.5989990234375 406.19921875 210.6988525390625 428.499267578125Q172.7987060546875 450.79931640625 153.7984619140625 479.09954833984375Q134.7982177734375 507.3997802734375 134.7982177734375 545.600341796875Q134.7982177734375 593.201171875 167.79864501953125 624.5014038085938Q200.799072265625 655.8016357421875 262.1993408203125 655.8016357421875Q307.599609375 655.8016357421875 338.69976806640625 638.6015625Q369.7999267578125 621.4014892578125 390.199951171875 595.201416015625Q410.5999755859375 569.0013427734375 421.9998779296875 542.2012939453125L470.1983642578125 569.0003662109375Q456.3985595703125 602.8001708984375 429.19873046875 634.9000854492188Q401.9989013671875 667 361.4990234375 688.0999755859375Q320.9991455078125 709.199951171875 265.19921875 709.199951171875Q210.5994873046875 709.199951171875 167.99969482421875 687.7000732421875Q125.39990234375 666.2001953125 101.20001220703125 627.8003540039062Q77.0001220703125 589.4005126953125 77.0001220703125 539.0006103515625Q77.0001220703125 494.2008056640625 94.300048828125 462.20086669921875Q111.5999755859375 430.200927734375 139.59991455078125 407.700927734375Q167.599853515625 385.200927734375 200.19989013671875 369.5008544921875Q232.7999267578125 353.80078125 262.8001708984375 342.8006591796875Q302.8001708984375 328.400634765625 339.30023193359375 308.70050048828125Q375.80029296875 289.0003662109375 398.80035400390625 257.8001708984375Q421.8004150390625 226.5999755859375 421.8004150390625 175.999755859375Q421.8004150390625 118.399169921875 383.20013427734375 80.79876708984375Q344.599853515625 43.1983642578125 277.399169921875 43.1983642578125Q226.5986328125 43.1983642578125 190.59844970703125 64.59857177734375Q154.5982666015625 85.998779296875 130.29840087890625 122.19903564453125Q105.99853515625 158.3992919921875 89.198974609375 202.3994140625Z" fill="#0A0A0A"/></g><g transform="translate(419.817,0) scale(0.018000,-0.018000)"><path d="M14.000244140625 647.6016845703125H198.00048828125V0H253.398681640625V647.6016845703125H437.39892578125V700H14.000244140625Z" fill="#0A0A0A"/></g><g transform="translate(448.262,0) scale(0.018000,-0.018000)"><path d="M89.198974609375 202.3994140625 44.0003662109375 173.6004638671875Q61 125.2003173828125 92.09967041015625 83.30023193359375Q123.1993408203125 41.400146484375 169.2991943359375 16.10009765625Q215.3990478515625 -9.199951171875 275.5992431640625 -9.199951171875Q318.79931640625 -9.199951171875 355.69921875 4.60003662109375Q392.59912109375 18.4000244140625 420.2989501953125 43.5999755859375Q447.998779296875 68.7999267578125 463.4986572265625 103.99981689453125Q478.99853515625 139.19970703125 478.99853515625 181.99951171875Q478.99853515625 228.3994140625 462.99859619140625 261.89935302734375Q446.9986572265625 295.3992919921875 421.2987060546875 319.29925537109375Q395.5987548828125 343.19921875 364.79876708984375 359.19921875Q333.998779296875 375.19921875 304.7987060546875 385.999267578125Q248.5989990234375 406.19921875 210.6988525390625 428.499267578125Q172.7987060546875 450.79931640625 153.7984619140625 479.09954833984375Q134.7982177734375 507.3997802734375 134.7982177734375 545.600341796875Q134.7982177734375 593.201171875 167.79864501953125 624.5014038085938Q200.799072265625 655.8016357421875 262.1993408203125 655.8016357421875Q307.599609375 655.8016357421875 338.69976806640625 638.6015625Q369.7999267578125 621.4014892578125 390.199951171875 595.201416015625Q410.5999755859375 569.0013427734375 421.9998779296875 542.2012939453125L470.1983642578125 569.0003662109375Q456.3985595703125 602.8001708984375 429.19873046875 634.9000854492188Q401.9989013671875 667 361.4990234375 688.0999755859375Q320.9991455078125 709.199951171875 265.19921875 709.199951171875Q210.5994873046875 709.199951171875 167.99969482421875 687.7000732421875Q125.39990234375 666.2001953125 101.20001220703125 627.8003540039062Q77.0001220703125 589.4005126953125 77.0001220703125 539.0006103515625Q77.0001220703125 494.2008056640625 94.300048828125 462.20086669921875Q111.5999755859375 430.200927734375 139.59991455078125 407.700927734375Q167.599853515625 385.200927734375 200.19989013671875 369.5008544921875Q232.7999267578125 353.80078125 262.8001708984375 342.8006591796875Q302.8001708984375 328.400634765625 339.30023193359375 308.70050048828125Q375.80029296875 289.0003662109375 398.80035400390625 257.8001708984375Q421.8004150390625 226.5999755859375 421.8004150390625 175.999755859375Q421.8004150390625 118.399169921875 383.20013427734375 80.79876708984375Q344.599853515625 43.1983642578125 277.399169921875 43.1983642578125Q226.5986328125 43.1983642578125 190.59844970703125 64.59857177734375Q154.5982666015625 85.998779296875 130.29840087890625 122.19903564453125Q105.99853515625 158.3992919921875 89.198974609375 202.3994140625Z" fill="#0A0A0A"/></g><g transform="translate(503.749,0) scale(0.018000,-0.018000)"><path d="M101.0003662109375 232.3995361328125Q101.0003662109375 217.199951171875 112.25389216496394 206.10028076171875Q123.50741811899039 195.0006103515625 138.51211939102564 195.0006103515625Q154.1988525390625 195.0006103515625 164.99853515625 206.10028076171875Q175.7982177734375 217.199951171875 175.7982177734375 232.35508897569446Q175.7982177734375 248.1990966796875 164.95177905590504 258.998779296875Q154.10534033837257 269.7984619140625 138.51358468191964 269.7984619140625Q123.5997314453125 269.7984619140625 112.300048828125 258.9187744140625Q101.0003662109375 248.0390869140625 101.0003662109375 232.3995361328125Z" fill="#0A0A0A"/></g><g transform="translate(554.789,0) scale(0.018000,-0.018000)"><path d="M112.9991455078125 0H459.998779296875V51.998291015625H112.9991455078125ZM112.9991455078125 648.001708984375H459.998779296875V700H112.9991455078125ZM112.9991455078125 357.60107421875H439.998779296875V409.599365234375H112.9991455078125ZM84.000244140625 700V0H139.3984375V700Z" fill="#0A0A0A"/></g><g transform="translate(584.729,0) scale(0.018000,-0.018000)"><path d="M317.999267578125 100.7965087890625 71.1982421875 700H9.000244140625L317.999267578125 -26.99951171875L626.998291015625 700H564.80029296875Z" fill="#0A0A0A"/></g><g transform="translate(616.504,0) scale(0.018000,-0.018000)"><path d="M112.9991455078125 0H459.998779296875V51.998291015625H112.9991455078125ZM112.9991455078125 648.001708984375H459.998779296875V700H112.9991455078125ZM112.9991455078125 357.60107421875H439.998779296875V409.599365234375H112.9991455078125ZM84.000244140625 700V0H139.3984375V700Z" fill="#0A0A0A"/></g><g transform="translate(646.443,0) scale(0.018000,-0.018000)"><path d="M615.600341796875 700V114.196044921875L84.000244140625 726.99951171875V0H139.3984375V583.8038330078125L670.99853515625 -26.99951171875V700Z" fill="#0A0A0A"/></g><g transform="translate(680.361,0) scale(0.018000,-0.018000)"><path d="M14.000244140625 647.6016845703125H198.00048828125V0H253.398681640625V647.6016845703125H437.39892578125V700H14.000244140625Z" fill="#0A0A0A"/></g><g transform="translate(708.806,0) scale(0.018000,-0.018000)"><path d="M89.198974609375 202.3994140625 44.0003662109375 173.6004638671875Q61 125.2003173828125 92.09967041015625 83.30023193359375Q123.1993408203125 41.400146484375 169.2991943359375 16.10009765625Q215.3990478515625 -9.199951171875 275.5992431640625 -9.199951171875Q318.79931640625 -9.199951171875 355.69921875 4.60003662109375Q392.59912109375 18.4000244140625 420.2989501953125 43.5999755859375Q447.998779296875 68.7999267578125 463.4986572265625 103.99981689453125Q478.99853515625 139.19970703125 478.99853515625 181.99951171875Q478.99853515625 228.3994140625 462.99859619140625 261.89935302734375Q446.9986572265625 295.3992919921875 421.2987060546875 319.29925537109375Q395.5987548828125 343.19921875 364.79876708984375 359.19921875Q333.998779296875 375.19921875 304.7987060546875 385.999267578125Q248.5989990234375 406.19921875 210.6988525390625 428.499267578125Q172.7987060546875 450.79931640625 153.7984619140625 479.09954833984375Q134.7982177734375 507.3997802734375 134.7982177734375 545.600341796875Q134.7982177734375 593.201171875 167.79864501953125 624.5014038085938Q200.799072265625 655.8016357421875 262.1993408203125 655.8016357421875Q307.599609375 655.8016357421875 338.69976806640625 638.6015625Q369.7999267578125 621.4014892578125 390.199951171875 595.201416015625Q410.5999755859375 569.0013427734375 421.9998779296875 542.2012939453125L470.1983642578125 569.0003662109375Q456.3985595703125 602.8001708984375 429.19873046875 634.9000854492188Q401.9989013671875 667 361.4990234375 688.0999755859375Q320.9991455078125 709.199951171875 265.19921875 709.199951171875Q210.5994873046875 709.199951171875 167.99969482421875 687.7000732421875Q125.39990234375 666.2001953125 101.20001220703125 627.8003540039062Q77.0001220703125 589.4005126953125 77.0001220703125 539.0006103515625Q77.0001220703125 494.2008056640625 94.300048828125 462.20086669921875Q111.5999755859375 430.200927734375 139.59991455078125 407.700927734375Q167.599853515625 385.200927734375 200.19989013671875 369.5008544921875Q232.7999267578125 353.80078125 262.8001708984375 342.8006591796875Q302.8001708984375 328.400634765625 339.30023193359375 308.70050048828125Q375.80029296875 289.0003662109375 398.80035400390625 257.8001708984375Q421.8004150390625 226.5999755859375 421.8004150390625 175.999755859375Q421.8004150390625 118.399169921875 383.20013427734375 80.79876708984375Q344.599853515625 43.1983642578125 277.399169921875 43.1983642578125Q226.5986328125 43.1983642578125 190.59844970703125 64.59857177734375Q154.5982666015625 85.998779296875 130.29840087890625 122.19903564453125Q105.99853515625 158.3992919921875 89.198974609375 202.3994140625Z" fill="#0A0A0A"/></g></g>
</svg>
